HIERARCHY
ROOT root
{
	OFFSET 0.000000 0.000000 0.000000
	CHANNELS 6 Xposition Yposition Zposition Zrotation Yrotation Xrotation
	JOINT lhip
	{
		OFFSET 0.058581 -0.082280 -0.017664
		CHANNELS 3 Zrotation Yrotation Xrotation
		JOINT lknee
		{
			OFFSET 0.043451 -0.386469 0.008037
			CHANNELS 3 Zrotation Yrotation Xrotation
			JOINT lankle
			{
				OFFSET -0.014790 -0.426874 -0.037428
				CHANNELS 3 Zrotation Yrotation Xrotation
				JOINT ltoe
				{
					OFFSET 0.041054 -0.060286 0.122042
					CHANNELS 3 Zrotation Yrotation Xrotation
					End Site
					{
						OFFSET 0.000000 0.000000 0.000000
					}
				}
			}
		}
	}
	JOINT rhip
	{
		OFFSET -0.060310 -0.090513 -0.013543
		CHANNELS 3 Zrotation Yrotation Xrotation
		JOINT rknee
		{
			OFFSET -0.043257 -0.383688 -0.004843
			CHANNELS 3 Zrotation Yrotation Xrotation
			JOINT rankle
			{
				OFFSET 0.019056 -0.420046 -0.034562
				CHANNELS 3 Zrotation Yrotation Xrotation
				JOINT rtoe
				{
					OFFSET -0.034840 -0.062106 0.130323
					CHANNELS 3 Zrotation Yrotation Xrotation
					End Site
					{
						OFFSET 0.000000 0.000000 0.000000
					}
				}
			}
		}
	}
	JOINT lowerback
	{
		OFFSET 0.004439 0.124404 -0.038385
		CHANNELS 3 Zrotation Yrotation Xrotation
		JOINT upperback
		{
			OFFSET 0.004488 0.137956 0.026820
			CHANNELS 3 Zrotation Yrotation Xrotation
			JOINT chest
			{
				OFFSET -0.002265 0.056032 0.002855
				CHANNELS 3 Zrotation Yrotation Xrotation
				JOINT lowerneck
				{
					OFFSET -0.013390 0.211636 -0.033468
					CHANNELS 3 Zrotation Yrotation Xrotation
					JOINT upperneck
					{
						OFFSET 0.010113 0.088937 0.050410
						CHANNELS 3 Zrotation Yrotation Xrotation
						End Site
						{
							OFFSET 0.000000 0.000000 0.000000
						}
					}
				}
				JOINT lclavicle
				{
					OFFSET 0.071702 0.114000 -0.018898
					CHANNELS 3 Zrotation Yrotation Xrotation
					JOINT lshoulder
					{
						OFFSET 0.122921 0.045205 -0.019046
						CHANNELS 3 Zrotation Yrotation Xrotation
						JOINT lelbow
						{
							OFFSET 0.255332 -0.015649 -0.022946
							CHANNELS 3 Zrotation Yrotation Xrotation
							JOINT lwrist
							{
								OFFSET 0.265709 0.012698 -0.007375
								CHANNELS 3 Zrotation Yrotation Xrotation
								End Site
								{
									OFFSET 0.000000 0.000000 0.000000
								}
							}
						}
					}
				}
				JOINT rclavicle
				{
					OFFSET -0.082954 0.112472 -0.023707
					CHANNELS 3 Zrotation Yrotation Xrotation
					JOINT rshoulder
					{
						OFFSET -0.113228 0.046853 -0.008472
						CHANNELS 3 Zrotation Yrotation Xrotation
						JOINT relbow
						{
							OFFSET -0.260127 -0.014369 -0.031269
							CHANNELS 3 Zrotation Yrotation Xrotation
							JOINT rwrist
							{
								OFFSET -0.269108 0.006794 -0.006027
								CHANNELS 3 Zrotation Yrotation Xrotation
								End Site
								{
									OFFSET 0.000000 0.000000 0.000000
								}
							}
						}
					}
				}
			}
		}
	}
}
MOTION
Frames: 5
Frame Time: 0.033333
-1.420076 1.754804 0.950629 96.156893 -0.445268 90.042262 0.860025 -5.810781 -9.709219 -0.962153 -2.718070 28.162484 4.369469 11.049717 -30.010441 0.000000 -0.000000 0.000000 -4.721412 6.622029 -20.546527 -7.428488 5.879552 20.814190 -1.278688 -5.155966 -32.628052 0.000000 -0.000000 0.000000 2.959199 -0.086925 7.970263 2.680416 -0.202939 -4.247774 1.023218 1.632553 -4.419141 -3.603089 8.724480 -20.504633 -5.536839 -2.016454 14.578814 -20.306813 -8.146927 1.182890 -69.439183 -8.835293 16.214009 1.093807 -69.202704 38.308632 -14.722898 -15.906298 13.306214 24.064880 11.931447 6.393717 64.053085 10.237775 16.355405 -27.436829 66.431412 7.416722 21.277297 8.619591 2.089269 
-1.419281 1.752571 0.950841 93.493770 -0.254883 90.705033 1.342067 -4.972344 -9.557412 -0.853572 -1.568429 27.136567 4.263498 11.664104 -29.653706 0.000000 -0.000000 0.000000 -4.258300 6.551249 -21.728433 -7.235688 5.965295 20.263878 -1.587962 -5.718161 -32.156632 0.000000 -0.000000 0.000000 3.218140 -0.406064 8.197023 2.556307 -0.029679 -4.367209 1.076438 1.618436 -4.479549 -3.390950 8.962670 -20.865430 -4.973073 -1.466344 14.035903 -20.454827 -7.830273 0.910353 -69.443738 -8.836886 15.692250 2.031411 -68.739195 36.754922 -14.431712 -14.611934 12.110793 24.296265 11.745560 6.776927 63.705641 10.498405 16.238676 -26.654206 66.633360 8.009775 19.955760 8.283807 2.686746 
-1.418825 1.749622 0.951367 90.799911 -0.232620 91.498666 1.566898 -3.900802 -9.651134 -0.511113 -0.548356 26.273289 4.185161 11.835930 -29.340682 0.000000 -0.000000 0.000000 -3.925832 6.718648 -23.179363 -7.160550 5.975937 19.850080 -1.612809 -5.392440 -31.793895 0.000000 -0.000000 0.000000 3.195545 -0.678152 8.394432 2.423864 0.216543 -4.735540 1.180047 1.681854 -4.434156 -3.261717 9.335675 -21.111503 -4.409638 -1.127950 13.443381 -20.610038 -7.373161 1.052825 -69.110742 -9.047061 15.138430 0.234749 -68.084967 37.963001 -10.786431 -15.592930 11.771606 24.579239 11.576549 7.230277 63.569258 10.444658 16.188936 -25.286690 66.304610 10.241087 13.657176 11.625639 5.676416 
-1.417823 1.746118 0.952112 88.121014 -0.360553 91.959320 1.665523 -2.994938 -9.232016 -0.345021 0.637092 25.452094 3.869593 12.064582 -29.254495 0.000000 -0.000000 0.000000 -3.713382 7.221065 -24.155837 -7.020711 6.167166 19.667728 -1.607368 -5.366000 -31.456319 0.000000 -0.000000 0.000000 2.984929 -0.924870 8.624552 2.346330 0.398320 -4.351229 1.386982 1.787994 -4.566442 -3.489156 9.016367 -21.953970 -3.864124 -0.762379 12.888553 -20.642194 -7.547302 0.725945 -69.063708 -8.497977 14.649775 0.607145 -68.533457 37.155996 -13.501526 -14.577915 12.919042 24.098358 12.058414 7.065688 64.051279 10.693731 15.789378 -26.768565 66.817351 6.964668 19.062867 8.118191 3.138223 
-1.416465 1.741315 0.952856 85.244587 -0.418407 92.422770 1.652670 -2.085254 -8.849669 0.107507 1.627476 24.802870 3.730839 12.431738 -29.042733 0.000000 -0.000000 0.000000 -3.308544 7.176064 -25.034465 -6.866015 5.720199 19.007364 -1.813225 -5.190668 -31.261343 0.000000 -0.000000 0.000000 3.002173 -1.292014 9.607990 2.132465 0.539187 -4.720362 1.518557 1.873950 -4.706462 -3.395902 9.069747 -23.353385 -3.787072 -0.475769 13.346341 -20.621519 -7.836766 0.809611 -68.833444 -8.056247 14.191974 0.257222 -68.806321 37.510821 -13.489083 -14.896234 13.416745 23.740453 12.561839 7.312578 64.399387 10.867272 15.695521 -28.388911 67.301586 4.479731 17.510481 7.582046 2.817939 
